<?xml version="1.0" encoding="UTF-8"?>
<svg xmlns="http://www.w3.org/2000/svg" viewBox="0 0 80 80">
  <defs>
    <style>
      .cls-1 {
        fill: #432f28;
      }
    </style>
  </defs>
  <g transform="translate(10, 12)">
    <!-- The "S" from SPS Logo -->
    <path class="cls-1" d="M35.08,3.69c-1.1.17-3.43-.61-4.85-.78-4.59-.91-9.82-1.13-14.16.31-6.72,2.14-8.59,8.1-2.64,13.16,5.12,4.63,13.23,8.29,18.46,12.75,5.8,4.46,9.86,12.84,5.22,19.46-5.93,8.39-20.58,8.21-29.62,5.46-2.61-.88-5.41-2.14-7.26-3.55-1.46-1.39,4.38.41,5.23.55,3.1.76,6.37,1.27,9.62,1.28,9.42.45,18.3-5.72,10.6-14.76C17.98,28.92,3.55,26.09.35,14.18-1.57-2.48,25.7-2.25,35.09,3.68h-.01Z"/>
    <!-- The "I" from SPS Logo, shifted to be next to S -->
    <g transform="translate(-105, 0)">
      <path class="cls-1" d="M152.9.89c1.7.54,1.47,2,1.49,4.81,0,2.23,0,4.4,0,6.68,0,10.28.01,31.55,0,39.59.21,2.65-1.67,3.18-4.14,3.23-1.44.05-3.49-.01-4.57-.73-.91-.62-.88-1.78-.88-3.65,0-9.96,0-38.38,0-46.95.02-.89.03-1.8.61-2.41,1.6-1.35,5.58-1.08,7.4-.61l.1.03Z"/>
    </g>
  </g>
</svg>