<?xml version="1.0" encoding="UTF-8"?>
<svg id="Layer_2" data-name="Layer 2" xmlns="http://www.w3.org/2000/svg" viewBox="0 0 266.5 55.74">
  <defs>
    <style>
      .cls-1 {
        fill: #432f28;
      }
    </style>
  </defs>
  <g id="Layer_1-2" data-name="Layer 1">
    <g>
      <path class="cls-1" d="M35.08,3.69c-1.1.17-3.43-.61-4.85-.78-4.59-.91-9.82-1.13-14.16.31-6.72,2.14-8.59,8.1-2.64,13.16,5.12,4.63,13.23,8.29,18.46,12.75,5.8,4.46,9.86,12.84,5.22,19.46-5.93,8.39-20.58,8.21-29.62,5.46-2.61-.88-5.41-2.14-7.26-3.55-1.46-1.39,4.38.41,5.23.55,3.1.76,6.37,1.27,9.62,1.28,9.42.45,18.3-5.72,10.6-14.76C17.98,28.92,3.55,26.09.35,14.18-1.57-2.48,25.7-2.25,35.09,3.68h-.01Z"/>
      <path class="cls-1" d="M54.86,40c-2.95,2.6-.82,10.05-2.78,13.14-1.48,2.4-5.21,2.31-7.17,1.64-1.34-.48-1.56-1.54-1.59-2.84.04-9.21-.15-38.31.07-48.65.45-3.07,2.56-2.68,6.43-2.86,4.95.05,10.44.15,15.16,1.92,7.64,2.69,13.35,10.38,12.56,18.54-.45,6.61-4.86,12.51-10.89,15.17-3.41,1.97-8.75,1.66-11.69,3.85l-.1.09ZM55.14,38.14c15.13-1.52,16.9-28.12,5.26-35.3-8.86-5.01-7.32,1.13-7.43,9,0,5.9,0,13.79,0,19.3.16,3.95-.6,6.48,2.05,7h.11Z"/>
      <path class="cls-1" d="M115.24,3.69c-1.1.17-3.43-.61-4.85-.78-4.59-.91-9.82-1.13-14.16.31-6.72,2.14-8.59,8.1-2.64,13.16,5.12,4.63,13.23,8.29,18.46,12.75,5.8,4.46,9.86,12.84,5.22,19.46-5.93,8.39-20.58,8.21-29.62,5.46-2.61-.88-5.41-2.14-7.26-3.55-1.46-1.39,4.38.41,5.23.55,3.1.76,6.37,1.27,9.62,1.28,9.42.45,18.3-5.72,10.6-14.76-7.71-8.65-22.13-11.48-25.33-23.38-1.92-16.66,25.35-16.44,34.74-10.51h-.01Z"/>
      <path class="cls-1" d="M152.9.89c1.7.54,1.47,2,1.49,4.81,0,2.23,0,4.4,0,6.68,0,10.28.01,31.55,0,39.59.21,2.65-1.67,3.18-4.14,3.23-1.44.05-3.49-.01-4.57-.73-.91-.62-.88-1.78-.88-3.65,0-9.96,0-38.38,0-46.95.02-.89.03-1.8.61-2.41,1.6-1.35,5.58-1.08,7.4-.61l.1.03Z"/>
      <path class="cls-1" d="M164,.97c3.08-.86,8.53-.98,10.24,2.54,5.7,10.52,22.54,42.47,25.9,48.61,1.35,2.55.7-1.63.69-3.32-.65-11.09-1.54-26.04-2.19-37.08-.14-3.2-.69-7.84-.1-9.26,1.03-2.88,3.35-1.37,3.27,2.94.01,1.98,0,3.84,0,5.92,0,10.21,0,25.55,0,35.89-.06,3.7.31,6.02-1.11,7.04-2.45,1.44-7.39,1.41-9.87-.51-7.01-11.05-21.75-41-27.29-50.48-1.26-2.25-.32,4.27-.36,5.81.72,12.2,1.71,28.92,2.4,40.65.41,4.46-1.38,5.92-2.58,4.44-.66-.78-.94-2.56-.92-3.86,0-10.03-.04-37.57.02-46.07.04-1.46.35-2.68,1.81-3.22l.1-.04Z"/>
      <path class="cls-1" d="M211.08.85c1.82-.48,5.8-.74,7.4.61.58.61.58,1.53.61,2.41.01,8.57,0,36.99,0,46.95,0,1.87.03,3.03-.88,3.65-1.09.71-3.13.77-4.57.73-2.48-.07-4.34-.56-4.14-3.23-.02-8.06,0-29.29,0-39.59,0-2.28,0-4.46,0-6.68.02-2.8-.22-4.26,1.49-4.81l.1-.03ZM218.85,27.81c0-1.31,1.33-2.82,3.44-5.54,2.78-3.54,6.1-7.77,8.98-11.44,2.9-3.23,5.84-8.99,9.71-9.85,1.95-.47,4.04-.47,6.06-.48,2.53.15,7.7-.41,3.44,2.64-5.33,4.15-18.29,14.14-25.03,19.37-2.17,1.74-6.25,4.55-5.88,5.35-.38.8,3.7,3.62,5.88,5.35,6.74,5.22,19.7,15.22,25.03,19.37,4.26,3.06-.88,2.49-3.44,2.64-2.02-.02-4.11-.01-6.06-.48-3.87-.85-6.81-6.63-9.71-9.85-2.88-3.67-6.2-7.9-8.98-11.44-2.11-2.72-3.43-4.23-3.44-5.54v-.09Z"/>
      <path class="cls-1" d="M254.98,49.83c.25-7.73,11.97-7.3,11.51.53-.47,7.19-11.39,6.9-11.51-.32v-.21Z"/>
    </g>
  </g>
</svg>